<?xml version="1.0" encoding="utf-8"?>
<svg viewBox="62.599 38.467 240 140" xmlns="http://www.w3.org/2000/svg">
  <rect x="62.599" y="38.467" width="240" height="140" style="fill-rule: nonzero; fill: rgb(238, 238, 238); stroke: rgb(186, 186, 186);" transform="matrix(1, 0, 0, 1, 2.842170943040401e-14, 0)"/>
  <path d="M 149.276 171.286 L 149.276 166.275 L 149.939 166.275 L 149.939 170.695 L 152.407 170.695 L 152.407 171.286 Z M 152.886 169.471 Q 152.886 168.463 153.447 167.977 Q 153.915 167.574 154.588 167.574 Q 155.337 167.574 155.812 168.065 Q 156.287 168.555 156.287 169.42 Q 156.287 170.12 156.077 170.522 Q 155.867 170.924 155.465 171.146 Q 155.063 171.368 154.588 171.368 Q 153.826 171.368 153.356 170.879 Q 152.886 170.39 152.886 169.471 Z M 153.518 169.471 Q 153.518 170.168 153.823 170.515 Q 154.127 170.862 154.588 170.862 Q 155.046 170.862 155.35 170.514 Q 155.655 170.165 155.655 169.451 Q 155.655 168.777 155.349 168.43 Q 155.043 168.083 154.588 168.083 Q 154.127 168.083 153.823 168.429 Q 153.518 168.774 153.518 169.471 Z M 156.893 171.587 L 157.491 171.676 Q 157.529 171.952 157.7 172.079 Q 157.929 172.25 158.325 172.25 Q 158.752 172.25 158.985 172.079 Q 159.217 171.908 159.299 171.6 Q 159.347 171.412 159.344 170.811 Q 158.94 171.286 158.339 171.286 Q 157.59 171.286 157.18 170.746 Q 156.77 170.206 156.77 169.451 Q 156.77 168.931 156.958 168.492 Q 157.146 168.053 157.503 167.813 Q 157.86 167.574 158.342 167.574 Q 158.985 167.574 159.402 168.094 L 159.402 167.656 L 159.969 167.656 L 159.969 170.794 Q 159.969 171.641 159.796 171.995 Q 159.624 172.349 159.25 172.554 Q 158.875 172.759 158.328 172.759 Q 157.679 172.759 157.279 172.467 Q 156.879 172.175 156.893 171.587 Z M 157.402 169.406 Q 157.402 170.12 157.686 170.449 Q 157.97 170.777 158.397 170.777 Q 158.821 170.777 159.108 170.45 Q 159.395 170.124 159.395 169.427 Q 159.395 168.76 159.099 168.422 Q 158.804 168.083 158.387 168.083 Q 157.976 168.083 157.689 168.417 Q 157.402 168.75 157.402 169.406 Z M 160.667 169.471 Q 160.667 168.463 161.228 167.977 Q 161.696 167.574 162.369 167.574 Q 163.118 167.574 163.593 168.065 Q 164.068 168.555 164.068 169.42 Q 164.068 170.12 163.858 170.522 Q 163.648 170.924 163.246 171.146 Q 162.845 171.368 162.369 171.368 Q 161.607 171.368 161.137 170.879 Q 160.667 170.39 160.667 169.471 Z M 161.3 169.471 Q 161.3 170.168 161.604 170.515 Q 161.908 170.862 162.369 170.862 Q 162.827 170.862 163.132 170.514 Q 163.436 170.165 163.436 169.451 Q 163.436 168.777 163.13 168.43 Q 162.824 168.083 162.369 168.083 Q 161.908 168.083 161.604 168.429 Q 161.3 168.774 161.3 169.471 Z M 166.743 171.286 L 166.743 166.275 L 167.359 166.275 L 167.359 169.133 L 168.815 167.656 L 169.611 167.656 L 168.223 169.003 L 169.751 171.286 L 168.992 171.286 L 167.793 169.43 L 167.359 169.847 L 167.359 171.286 Z M 170.011 169.471 Q 170.011 168.463 170.572 167.977 Q 171.04 167.574 171.713 167.574 Q 172.462 167.574 172.937 168.065 Q 173.412 168.555 173.412 169.42 Q 173.412 170.12 173.202 170.522 Q 172.992 170.924 172.59 171.146 Q 172.188 171.368 171.713 171.368 Q 170.951 171.368 170.481 170.879 Q 170.011 170.39 170.011 169.471 Z M 170.643 169.471 Q 170.643 170.168 170.948 170.515 Q 171.252 170.862 171.713 170.862 Q 172.171 170.862 172.475 170.514 Q 172.78 170.165 172.78 169.451 Q 172.78 168.777 172.474 168.43 Q 172.168 168.083 171.713 168.083 Q 171.252 168.083 170.948 168.429 Q 170.643 168.774 170.643 169.471 Z M 174.131 171.286 L 174.131 167.656 L 174.681 167.656 L 174.681 168.165 Q 174.852 167.899 175.136 167.736 Q 175.419 167.574 175.782 167.574 Q 176.185 167.574 176.443 167.742 Q 176.701 167.909 176.807 168.21 Q 177.238 167.574 177.928 167.574 Q 178.468 167.574 178.759 167.873 Q 179.049 168.172 179.049 168.794 L 179.049 171.286 L 178.437 171.286 L 178.437 168.999 Q 178.437 168.63 178.378 168.468 Q 178.318 168.306 178.16 168.206 Q 178.003 168.107 177.791 168.107 Q 177.409 168.107 177.156 168.362 Q 176.903 168.617 176.903 169.177 L 176.903 171.286 L 176.287 171.286 L 176.287 168.928 Q 176.287 168.517 176.137 168.312 Q 175.987 168.107 175.645 168.107 Q 175.385 168.107 175.165 168.244 Q 174.944 168.381 174.845 168.644 Q 174.746 168.907 174.746 169.403 L 174.746 171.286 Z M 179.959 171.286 L 179.959 167.656 L 180.509 167.656 L 180.509 168.165 Q 180.68 167.899 180.964 167.736 Q 181.247 167.574 181.61 167.574 Q 182.013 167.574 182.271 167.742 Q 182.529 167.909 182.635 168.21 Q 183.066 167.574 183.756 167.574 Q 184.296 167.574 184.587 167.873 Q 184.877 168.172 184.877 168.794 L 184.877 171.286 L 184.265 171.286 L 184.265 168.999 Q 184.265 168.63 184.206 168.468 Q 184.146 168.306 183.989 168.206 Q 183.831 168.107 183.619 168.107 Q 183.237 168.107 182.984 168.362 Q 182.731 168.617 182.731 169.177 L 182.731 171.286 L 182.116 171.286 L 182.116 168.928 Q 182.116 168.517 181.965 168.312 Q 181.815 168.107 181.473 168.107 Q 181.213 168.107 180.993 168.244 Q 180.772 168.381 180.673 168.644 Q 180.574 168.907 180.574 169.403 L 180.574 171.286 Z M 187.138 170.736 L 187.227 171.279 Q 186.967 171.334 186.762 171.334 Q 186.427 171.334 186.242 171.228 Q 186.058 171.122 185.983 170.949 Q 185.908 170.777 185.908 170.223 L 185.908 168.135 L 185.456 168.135 L 185.456 167.656 L 185.908 167.656 L 185.908 166.757 L 186.519 166.388 L 186.519 167.656 L 187.138 167.656 L 187.138 168.135 L 186.519 168.135 L 186.519 170.257 Q 186.519 170.52 186.552 170.596 Q 186.584 170.671 186.658 170.715 Q 186.731 170.76 186.868 170.76 Q 186.971 170.76 187.138 170.736 Z M 189.685 171.286 L 189.685 167.656 L 190.239 167.656 L 190.239 168.172 Q 190.639 167.574 191.394 167.574 Q 191.722 167.574 191.998 167.692 Q 192.273 167.81 192.409 168.001 Q 192.546 168.193 192.601 168.456 Q 192.635 168.627 192.635 169.054 L 192.635 171.286 L 192.02 171.286 L 192.02 169.078 Q 192.02 168.702 191.948 168.516 Q 191.876 168.329 191.693 168.218 Q 191.511 168.107 191.264 168.107 Q 190.871 168.107 190.586 168.357 Q 190.301 168.606 190.301 169.304 L 190.301 171.286 Z M 193.347 169.471 Q 193.347 168.463 193.908 167.977 Q 194.376 167.574 195.049 167.574 Q 195.798 167.574 196.273 168.065 Q 196.748 168.555 196.748 169.42 Q 196.748 170.12 196.538 170.522 Q 196.327 170.924 195.926 171.146 Q 195.524 171.368 195.049 171.368 Q 194.287 171.368 193.817 170.879 Q 193.347 170.39 193.347 169.471 Z M 193.979 169.471 Q 193.979 170.168 194.284 170.515 Q 194.588 170.862 195.049 170.862 Q 195.507 170.862 195.811 170.514 Q 196.116 170.165 196.116 169.451 Q 196.116 168.777 195.81 168.43 Q 195.504 168.083 195.049 168.083 Q 194.588 168.083 194.284 168.429 Q 193.979 168.774 193.979 169.471 Z M 199.835 169.956 L 200.44 170.035 Q 200.341 170.661 199.933 171.014 Q 199.524 171.368 198.93 171.368 Q 198.184 171.368 197.732 170.881 Q 197.279 170.394 197.279 169.485 Q 197.279 168.897 197.473 168.456 Q 197.668 168.015 198.066 167.795 Q 198.465 167.574 198.933 167.574 Q 199.524 167.574 199.9 167.873 Q 200.276 168.172 200.382 168.723 L 199.784 168.815 Q 199.699 168.449 199.482 168.265 Q 199.264 168.08 198.957 168.08 Q 198.492 168.08 198.201 168.413 Q 197.911 168.746 197.911 169.468 Q 197.911 170.199 198.191 170.531 Q 198.471 170.862 198.923 170.862 Q 199.285 170.862 199.528 170.64 Q 199.77 170.418 199.835 169.956 Z M 200.967 171.286 L 200.967 166.275 L 201.582 166.275 L 201.582 168.073 Q 202.013 167.574 202.669 167.574 Q 203.072 167.574 203.369 167.733 Q 203.667 167.892 203.795 168.172 Q 203.923 168.452 203.923 168.986 L 203.923 171.286 L 203.308 171.286 L 203.308 168.986 Q 203.308 168.524 203.108 168.314 Q 202.908 168.104 202.542 168.104 Q 202.269 168.104 202.028 168.246 Q 201.787 168.388 201.684 168.63 Q 201.582 168.873 201.582 169.3 L 201.582 171.286 Z M 205.039 171.286 L 205.039 170.585 L 205.74 170.585 L 205.74 171.286 Z M 206.985 171.286 L 206.985 170.585 L 207.685 170.585 L 207.685 171.286 Z M 208.922 171.286 L 208.922 170.585 L 209.623 170.585 L 209.623 171.286 Z" style="fill: rgb(166, 166, 166); stroke: rgb(186, 186, 186);"/>
</svg>